<svg width="13" height="17" viewBox="0 0 13 17" fill="none" xmlns="http://www.w3.org/2000/svg">
<path d="M8.92801 8.11205C9.82401 8.27205 10.584 8.74405 11.208 9.52805C11.832 10.3121 12.144 11.2001 12.144 12.1921C12.144 13.0401 11.92 13.8081 11.472 14.4961C11.04 15.1681 10.408 15.7041 9.57601 16.1041C8.74401 16.4881 7.77601 16.6801 6.67201 16.6801H1.22786e-05V5.24521e-05H6.36001C7.49601 5.24521e-05 8.47201 0.192053 9.28801 0.576054C10.104 0.960053 10.72 1.48005 11.136 2.13605C11.552 2.77605 11.76 3.49605 11.76 4.29605C11.76 5.25605 11.504 6.05605 10.992 6.69605C10.48 7.33605 9.79201 7.80805 8.92801 8.11205ZM2.73601 7.00805H6.12001C7.01601 7.00805 7.71201 6.80805 8.20801 6.40805C8.72001 5.99205 8.97601 5.40005 8.97601 4.63205C8.97601 3.88005 8.72001 3.29605 8.20801 2.88005C7.71201 2.44805 7.01601 2.23205 6.12001 2.23205H2.73601V7.00805ZM6.43201 14.4481C7.36001 14.4481 8.08801 14.2241 8.61601 13.7761C9.14401 13.3281 9.40801 12.7041 9.40801 11.9041C9.40801 11.0881 9.12801 10.4401 8.56801 9.96005C8.00801 9.48005 7.26401 9.24005 6.33601 9.24005H2.73601V14.4481H6.43201Z" fill="white"/>
</svg>
